<?xml version="1.0" encoding="UTF-8" standalone="no"?>
<svg id="svg8" xmlns="http://www.w3.org/2000/svg" xmlns:svg="http://www.w3.org/2000/svg" xmlns:rdf="http://www.w3.org/1999/02/22-rdf-syntax-ns#" xmlns:cc="http://creativecommons.org/ns#" xmlns:dc="http://purl.org/dc/elements/1.1/" version="1.0" preserveAspectRatio="xMidYMid meet" viewBox="96.32 605.22 837.68 264.78">
  <defs id="defs2" />
  <metadata id="metadata5">
    <rdf:RDF>
      <cc:Work rdf:about="">
        <dc:format>image/svg+xml</dc:format>
        <dc:type rdf:resource="http://purl.org/dc/dcmitype/StillImage" />
      </cc:Work>
    </rdf:RDF>
  </metadata>
  <g transform="translate(0.000000,1536.000000) scale(0.100000,-0.100000)" fill="#0d9488" stroke="none">
    <path d="M1625 9303 c-177 -22 -336 -102 -455 -229 -270 -289 -276 -731 -16 -1137 137 -215 504 -572 820 -797 l48 -35 -6 -130 c-6 -113 -4 -134 11 -165 33 -63 93 -66 153 -6 92 92 277 250 500 428 264 209 392 325 532 483 174 195 294 408 342 605 3 14 11 70 16 125 25 250 -57 487 -225 650 -85 83 -157 128 -268 168 -72 26 -99 30 -222 35 -122 4 -151 2 -218 -17 -124 -34 -254 -109 -336 -195 l-34 -35 -65 60 c-121 111 -246 168 -412 188 -84 11 -108 11 -165 4z m219 -203 c112 -28 167 -62 289 -179 106 -101 110 -103 147 -98 33 4 54 20 142 109 112 113 169 149 269 173 130 30 262 15 386 -45 169 -83 296 -281 310 -485 22 -318 -173 -649 -601 -1019 -137 -119 -501 -396 -520 -396 -13 0 -397 294 -515 395 -165 140 -325 314 -423 457 -56 84 -134 250 -153 328 -58 246 -3 472 152 621 37 36 91 79 118 95 108 63 261 80 399 44z" fill="#0d9488" />
    <path d="M2136 8604 c-13 -13 -16 -42 -16 -165 l0 -149 -150 0 c-199 0 -193 5 -188 -167 3 -110 5 -126 22 -139 15 -11 56 -14 168 -14 l148 0 0 -149 c0 -166 5 -180 63 -182 95 -3 214 4 225 13 9 8 12 53 12 164 l0 154 148 0 c103 0 153 4 165 13 14 10 17 33 18 147 1 118 -1 136 -17 147 -13 9 -60 13 -166 13 l-148 0 0 149 c0 123 -3 152 -16 165 -23 23 -245 23 -268 0z" fill="#0d9488" />
    <path d="M4050 8130 l0 -660 115 0 115 0 0 472 c0 259 2 469 5 467 5 -5 231 -613 308 -827 l40 -113 94 3 95 3 52 140 c29 77 106 284 171 460 65 176 122 324 127 329 4 6 8 -202 8 -462 l0 -472 115 0 115 0 0 660 0 660 -162 -2 -161 -3 -157 -430 c-217 -596 -196 -545 -207 -515 -6 14 -53 144 -106 290 -54 146 -130 353 -170 460 l-72 195 -163 3 -162 2 0 -660z" fill="#0d9488" />
    <path d="M7340 8554 l0 -237 -48 45 c-68 64 -125 83 -247 83 -92 0 -106 -3 -167 -32 -165 -78 -248 -238 -248 -478 0 -157 31 -259 108 -354 134 -166 416 -187 561 -42 l41 41 0 -55 0 -55 120 0 120 0 0 660 0 660 -120 0 -120 0 0 -236z m-122 -344 c79 -44 122 -138 122 -265 0 -133 -44 -219 -135 -261 -139 -65 -293 9 -324 156 -36 167 14 325 120 379 58 29 156 25 217 -9z" fill="#0d9488" />
    <path d="M8133 8673 c-23 -65 -116 -325 -207 -578 -90 -253 -178 -497 -194 -542 l-31 -83 128 0 128 0 38 108 c21 59 46 131 57 160 l19 52 252 0 252 0 55 -160 55 -160 133 0 c124 0 134 1 127 18 -14 36 -49 130 -190 522 -81 223 -177 488 -214 590 l-67 185 -149 3 -150 2 -42 -117z m287 -420 c48 -133 85 -245 82 -248 -6 -6 -362 -7 -362 0 0 2 20 57 44 122 24 65 65 181 92 257 26 77 50 133 53 125 2 -8 43 -123 91 -256z" fill="#0d9488" />
    <path d="M9090 8130 l0 -660 125 0 125 0 0 660 0 660 -125 0 -125 0 0 -660z" fill="#0d9488" />
    <path d="M5886 8429 c-183 -64 -281 -211 -293 -439 -9 -178 30 -308 125 -411 161 -175 487 -187 662 -23 46 43 110 148 110 181 0 10 -25 13 -111 13 l-111 0 -39 -44 c-40 -45 -69 -59 -144 -71 -79 -12 -187 41 -222 108 -20 39 -43 124 -35 131 3 3 156 6 340 6 l335 0 -6 103 c-10 159 -46 252 -133 347 -37 39 -73 66 -116 86 -56 25 -76 29 -183 31 -101 3 -129 0 -179 -18z m271 -195 c47 -27 88 -88 98 -146 l7 -38 -217 0 -217 0 6 31 c18 91 79 158 162 178 53 13 111 4 161 -25z" fill="#0d9488" />
    <path d="M2784 7170 c-56 -22 -69 -90 -28 -139 l26 -31 207 0 c207 0 208 0 235 25 36 33 37 95 1 130 -24 25 -25 25 -222 24 -109 0 -208 -4 -219 -9z" fill="#0d9488" />
    <path d="M2390 6811 c-38 -38 -39 -78 -4 -120 l26 -31 378 0 379 0 20 26 c27 34 28 94 2 125 l-19 24 -377 3 -376 3 -29 -30z" fill="#0d9488" />
  </g>
</svg>